# xmcd CD database file
#
# Track frame offsets:
#	150
#	24855
#	48035
#	73465
#	98860
#	112903
#	137325
#	159223
#	193738
#	208628
#	253113
#
# Disc length: 3844 seconds
#
# Revision: 0
# Processed by: cddbd v1.4PL0 Copyright (c) Steve Scherf et al.
# Submitted via: CDex 1.50beta9
#
DISCID=8d0f020b
DTITLE=Various Artist - Pacific Moon III
DYEAR=1999
DGENRE=New Age
TTITLE0=Silver Moon - Naoyuki Onda
TTITLE1=Teinsagu Nu Hana - Penny And Kyoku Gushiken
TTITLE2=Night Sky - Naoyuki Onda
TTITLE3=Wings Of The Eagle - Uttara-Kuru
TTITLE4=Beyond The Window - Mizuyo Komiya
TTITLE5=Neyuki - Uttara-Kuru
TTITLE6=A Lullaby Of Takeda - Eri
TTITLE7=Hae - F.A.B.
TTITLE8=A Song Of Birth - Eri
TTITLE9=Tsugaru - Mizuyo Komiya
TTITLE10=Hannya Shingyo - F.A.B.
EXTD=YEAR: 1999
EXTT0=
EXTT1=
EXTT2=
EXTT3=
EXTT4=
EXTT5=
EXTT6=
EXTT7=
EXTT8=
EXTT9=
EXTT10=
PLAYORDER=
